# xmcd CD database file
#
# Track frame offsets:
#	150
#	67460
#	89755
#	117567
#	124516
#	149786
#
# Disc length: 2280 seconds
#
# Revision: 0
# Processed by: cddbd v1.5.2PL0 Copyright (c) Steve Scherf et al.
# Submitted via: CDex 1.70beta2
#
DISCID=6708e606
DTITLE=Jan Gabarek Bobo Stenson Quartet - Dansere
DYEAR=1975
DGENRE=Jazz
TTITLE0=Dansere
TTITLE1=Svevende
TTITLE2=Bris
TTITLE3=Skrik and Hyl
TTITLE4=LOKK (Etter Thorvalid Tronsgard)
TTITLE5=Til Vennene
EXTD=YEAR: 1975
EXTT0=
EXTT1=
EXTT2=
EXTT3=
EXTT4=
EXTT5=
PLAYORDER=
